#!OML:ASF H:\LiuWeirdWalks\Patient Classification 1\Patient 1\Session 1\male.ASF
:FULLY-SPECIFIED
:DEGREES
225
root 0.160317 17.8061 -27.2894 7.92538 5.21756 -1.37299
lowerback 8.03811 4.78222 3.3844
upperback -1.72416 6.62547 -1.88325
thorax -5.69079 3.12214 -4.67963
lowerneck -23.2754 -2.14987 17.3837
upperneck 21.5365 -6.46238 -10.5382
head 9.71241 -2.87436 -7.58917
rclavicle -3.26007e-014 1.27222e-014
rhumerus -34.8893 -20.0023 -78.0456
rradius 28.9291
rwrist -2.85328
rhand -16.8843 -1.16796
rfingers 7.12502
rthumb 9.34699 -30.9407
lclavicle -3.26007e-014 1.27222e-014
lhumerus -34.6528 -9.84575 84.5489
lradius 26.0982
lwrist 6.84579
lhand -13.6276 -1.52496
lfingers 7.12502
lthumb 12.4882 28.0819
rfemur -2.18434 -2.0652 21.1876
rtibia 36.05
rfoot -6.82034 -29.6777
rtoes -14.3016
lfemur -29.9739 -3.00085 -14.892
ltibia 32.1512
lfoot -8.73565 7.77217
ltoes -12.1369
226
root 0.206322 17.8228 -27.1622 7.81279 5.08848 -1.19428
lowerback 7.81387 4.38669 2.73299
upperback -1.54195 6.04703 -1.42927
thorax -5.54293 2.87188 -3.75223
lowerneck -23.1577 -1.72679 16.7704
upperneck 21.277 -5.63694 -10.5395
head 9.74968 -2.55097 -7.38214
rclavicle 8.67571e-014 -1.69961e-014
rhumerus -34.197 -18.3692 -78.1568
rradius 28.9523
rwrist -2.99769
rhand -16.7046 -1.05851
rfingers 7.12502
rthumb 9.52039 -30.8234
lclavicle 8.67571e-014 -1.69961e-014
lhumerus -34.6951 -7.76015 84.5116
lradius 25.9715
lwrist 6.54616
lhand -13.7256 -1.46616
lfingers 7.12502
lthumb 12.3937 28.1464
rfemur -3.21025 -2.45301 20.7064
rtibia 38.5848
rfoot -5.27874 -29.1399
rtoes -14.3808
lfemur -29.1882 -2.96299 -15.2847
ltibia 31.9042
lfoot -8.90103 7.85071
ltoes -11.5145
227
root 0.252018 17.8385 -27.0351 7.6896 4.95817 -0.990433
lowerback 7.53427 3.80838 1.88999
upperback -1.28817 5.21896 -0.769426
thorax -5.31785 2.50737 -2.47365
lowerneck -22.9878 -1.15537 15.8385
upperneck 20.9192 -4.49556 -10.511
head 9.795 -2.10471 -7.06373
rclavicle 1.45299e-014 1.75924e-014
rhumerus -33.224 -16.0266 -78.3085
rradius 28.9658
rwrist -3.30408
rhand -16.4958 -0.991435
rfingers 7.12502
rthumb 9.72186 -30.7471
lclavicle 1.45299e-014 1.75924e-014
lhumerus -34.7629 -4.91969 84.4817
lradius 25.8777
lwrist 6.15911
lhand -13.7758 -1.44895
lfingers 7.12502
lthumb 12.3453 28.1666
rfemur -4.31457 -2.83424 20.1962
rtibia 41.1559
rfoot -3.54173 -28.6187
rtoes -14.1258
lfemur -28.3754 -2.91724 -15.7135
ltibia 31.6268
lfoot -9.04777 7.96359
ltoes -10.8661
228
root 0.297184 17.8526 -26.9076 7.54016 4.8293 -0.771687
lowerback 7.26184 2.99402 0.816038
upperback -0.946801 4.07305 0.155168
thorax -5.00631 1.9928 -0.761221
lowerneck -22.922 -0.346625 14.5638
upperneck 20.5665 -2.91634 -10.5188
head 9.91922 -1.4854 -6.6448
rclavicle 2.21396e-014 -3.49861e-014
rhumerus -31.8722 -12.7593 -78.4851
rradius 28.9438
rwrist -3.79518
rhand -16.2572 -0.932277
rfingers 7.12502
rthumb 9.95198 -30.677
lclavicle 2.21396e-014 -3.49861e-014
lhumerus -34.8442 -1.1294 84.4658
lradius 25.8283
lwrist 5.67953
lhand -13.7705 -1.47584
lfingers 7.12502
lthumb 12.3504 28.1394
rfemur -5.4595 -3.20717 19.6721
rtibia 43.7198
rfoot -1.59206 -28.1131
rtoes -13.3326
lfemur -27.5234 -2.85879 -16.1656
ltibia 31.3303
lfoot -9.17185 8.0944
ltoes -10.2683
229
root 0.341241 17.8649 -26.7802 7.36643 4.7097 -0.54738
lowerback 7.09638 2.12202 -0.277027
upperback -0.597461 2.85643 1.11735
thorax -4.66987 1.43534 0.99761
lowerneck -23.0551 0.519495 13.1692
upperneck 20.2555 -1.25083 -10.4987
head 10.0874 -0.832858 -6.17573
rclavicle -2.27111e-014 -1.63003e-014
rhumerus -30.4591 -9.2552 -78.6164
rradius 28.9828
rwrist -4.44072
rhand -16.0021 -0.930232
rfingers 7.12502
rthumb 10.1981 -30.663
lclavicle -2.27111e-014 -1.63003e-014
lhumerus -34.9452 2.73871 84.4877
lradius 25.8723
lwrist 5.25409
lhand -13.7009 -1.47436
lfingers 7.12502
lthumb 12.4175 28.1368
rfemur -6.63062 -3.56502 19.1543
rtibia 46.248
rfoot 0.476445 -27.6226
rtoes -11.8618
lfemur -26.6414 -2.80156 -16.6228
ltibia 31.0203
lfoot -9.28641 8.23532
ltoes -9.70437
230
root 0.383487 17.8752 -26.6531 7.1699 4.60156 -0.313001
lowerback 7.0785 1.38668 -1.20257
upperback -0.320884 1.83013 1.88628
thorax -4.4046 0.956756 2.43421
lowerneck -23.361 1.24316 11.9321
upperneck 20.0849 0.132981 -10.4147
head 10.2755 -0.290761 -5.74188
rclavicle 2.76311e-014 1.19271e-015
rhumerus -29.3208 -6.29091 -78.6763
rradius 29.1542
rwrist -5.11478
rhand -15.7733 -0.97684
rfingers 7.12502
rthumb 10.4188 -30.6987
lclavicle 2.76311e-014 1.19271e-015
lhumerus -35.0516 5.80152 84.5586
lradius 25.9728
lwrist 5.00483
lhand -13.5519 -1.44616
lfingers 7.12502
lthumb 12.5611 28.1562
rfemur -7.8113 -3.91246 18.6462
rtibia 48.7211
rfoot 2.59621 -27.1101
rtoes -9.78592
lfemur -25.7327 -2.75805 -17.0823
ltibia 30.6978
lfoot -9.38809 8.38127
ltoes -9.19271
231
root 0.423609 17.8838 -26.527 6.96242 4.5338 -0.0311367
lowerback 7.13681 0.882071 -1.92955
upperback -0.128343 1.1146 2.35116
thorax -4.22363 0.619657 3.40856
lowerneck -23.6782 1.7214 11.0428
upperneck 19.9664 1.04464 -10.2767
head 10.4067 0.0670965 -5.40665
rclavicle -1.83876e-014 -1.51076e-014
rhumerus -28.5763 -4.30392 -78.6977
rradius 29.4551
rwrist -5.7299
rhand -15.6134 -1.09027
rfingers 7.12502
rthumb 10.5731 -30.8043
lclavicle -1.83876e-014 -1.51076e-014
lhumerus -35.1304 7.63314 84.6833
lradius 26.1207
lwrist 4.98938
lhand -13.3496 -1.37281
lfingers 7.12502
lthumb 12.7562 28.2175
rfemur -8.99517 -4.2905 18.1111
rtibia 51.1349
rfoot 4.60359 -26.6035
rtoes -7.35331
lfemur -24.8114 -2.73145 -17.5864
ltibia 30.3603
lfoot -9.4796 8.49063
ltoes -8.75575
232
root 0.461071 17.891 -26.4023 6.75793 4.50832 0.299899
lowerback 7.23171 0.585169 -2.53003
upperback -0.0283059 0.675004 2.55514
thorax -4.15049 0.41385 4.01029
lowerneck -23.8833 1.97152 10.4986
upperneck 19.8695 1.52139 -10.1054
head 10.4641 0.25858 -5.17741
rclavicle 1.26228e-014 1.59028e-014
rhumerus -28.2204 -3.20928 -78.7169
rradius 29.851
rwrist -6.24239
rhand -15.55 -1.17987
rfingers 7.12502
rthumb 10.6343 -30.8908
lclavicle 1.26228e-014 1.59028e-014
lhumerus -35.2147 8.35827 84.8441
lradius 26.2882
lwrist 5.15061
lhand -13.0935 -1.23328
lfingers 7.12502
lthumb 13.0031 28.3415
rfemur -10.1853 -4.70853 17.5548
rtibia 53.4892
rfoot 6.34798 -26.156
rtoes -4.83728
lfemur -23.8935 -2.73579 -18.1308
ltibia 30.0075
lfoot -9.55368 8.57416
ltoes -8.35134
233
root 0.496109 17.8968 -26.2795 6.56565 4.52806 0.667587
lowerback 7.32735 0.531427 -2.98936
upperback -0.0254587 0.558935 2.47139
thorax -4.19504 0.365665 4.19629
lowerneck -23.8961 1.97552 10.4282
upperneck 19.7667 1.50643 -9.95194
head 10.4255 0.263578 -5.10636
rclavicle -5.76476e-015 9.54166e-015
rhumerus -28.3096 -3.16382 -78.7574
rradius 30.3441
rwrist -6.6222
rhand -15.5963 -1.25044
rfingers 7.12502
rthumb 10.5896 -30.9636
lclavicle -5.76476e-015 9.54166e-015
lhumerus -35.2933 7.85552 85.0214
lradius 26.4279
lwrist 5.44929
lhand -12.8459 -1.15753
lfingers 7.12502
lthumb 13.2417 28.4019
rfemur -11.3845 -5.18499 16.9936
rtibia 55.7819
rfoot 7.65868 -25.8495
rtoes -2.64138
lfemur -22.9959 -2.77356 -18.7018
ltibia 29.6462
lfoot -9.60916 8.6405
ltoes -7.96231
234
root 0.528817 17.9014 -26.1581 6.387 4.58185 1.05174
lowerback 7.43956 0.469392 -3.46896
upperback -0.0373414 0.428492 2.38677
thorax -4.26159 0.311738 4.39503
lowerneck -23.8871 1.96929 10.3487
upperneck 19.6467 1.48373 -9.80539
head 10.3759 0.26373 -5.03677
rclavicle -9.44227e-015 3.26007e-014
rhumerus -28.4169 -3.10965 -78.8093
rradius 30.8395
rwrist -6.97546
rhand -15.7347 -1.23748
rfingers 7.12502
rthumb 10.4561 -30.9575
lclavicle -9.44227e-015 3.26007e-014
lhumerus -35.3758 7.28234 85.2151
lradius 26.5668
lwrist 5.70044
lhand -12.6246 -1.1805
lfingers 7.12502
lthumb 13.455 28.3649
rfemur -12.583 -5.7148 16.4508
rtibia 57.9981
rfoot 8.40097 -25.7519
rtoes -1.00386
lfemur -22.1257 -2.82588 -19.2805
ltibia 29.291
lfoot -9.66168 8.69636
ltoes -7.60107
235
root 0.559244 17.9044 -26.0387 6.2363 4.66289 1.42354
lowerback 7.53373 0.404838 -3.93102
upperback -0.0500793 0.295367 2.30183
thorax -4.31683 0.25619 4.58416
lowerneck -23.9018 1.97682 10.3067
upperneck 19.5206 1.47429 -9.69893
head 10.3307 0.267454 -4.98681
rclavicle 1.69961e-014 -7.15625e-015
rhumerus -28.5096 -3.0864 -78.8726
rradius 31.3391
rwrist -7.33576
rhand -15.9359 -1.22578
rfingers 7.12502
rthumb 10.262 -30.9554
lclavicle 1.69961e-014 -7.15625e-015
lhumerus -35.418 6.645 85.4157
lradius 26.6781
lwrist 5.85681
lhand -12.4456 -1.31486
lfingers 7.12502
lthumb 13.6276 28.2191
rfemur -13.7943 -6.27895 15.9648
rtibia 60.1127
rfoot 8.48641 -25.9105
rtoes 0.0756269
lfemur -21.314 -2.90308 -19.8318
ltibia 28.9602
lfoot -9.71928 8.76597
ltoes -7.26518
236
root 0.587992 17.9063 -25.9202 6.10912 4.75032 1.76236
lowerback 7.6168 0.342326 -4.36086
upperback -0.0664328 0.167556 2.22799
thorax -4.36851 0.202983 4.76637
lowerneck -23.9392 1.98126 10.2683
upperneck 19.4423 1.46566 -9.61657
head 10.3073 0.268957 -4.94859
rclavicle -9.34288e-015 -2.14687e-014
rhumerus -28.6007 -3.07971 -78.9309
rradius 31.8401
rwrist -7.68285
rhand -16.1498 -1.15077
rfingers 7.12502
rthumb 10.0557 -30.8905
lclavicle -9.34288e-015 -2.14687e-014
lhumerus -35.4071 5.99221 85.6141
lradius 26.7226
lwrist 5.90245
lhand -12.3292 -1.59804
lfingers 7.12502
lthumb 13.7397 27.9283
rfemur -15.012 -6.85297 15.5544
rtibia 62.0872
rfoot 7.96768 -26.25
rtoes 0.682316
lfemur -20.5583 -2.99438 -20.337
ltibia 28.6701
lfoot -9.79889 8.86769
ltoes -6.9667
